<?xml version="1.0" encoding="UTF-8" standalone="no"?>
<svg
   fill="none"
   height="28"
   width="28"
   viewbox="0 0 28 28"
   version="1.1"
   xmlns="http://www.w3.org/2000/svg"
   xmlns:svg="http://www.w3.org/2000/svg">
  <path
     fill="#5865f2"
     d="M 23.02119,5.67671 C 21.31069,4.879656 19.50789,4.318797 17.65839,4 c -0.2522,0.461742 -0.4835,0.934541 -0.6876,1.4184 -1.9678,-0.29695 -3.9734,-0.29695 -5.9425,0 C 10.81899,4.934541 10.58899,4.461744 10.33679,4.0054631 8.4807303,4.324393 6.6779403,4.885118 4.9674503,5.68231 1.5672603,10.77853 0.64965628,15.7538 1.1110703,20.652 c 1.98994,1.4898 4.21512,2.6223 6.58069,3.348 0.53161,-0.7257 1.00342,-1.5007 1.40635,-2.309 -0.76816,-0.2913 -1.5129,-0.6486 -2.22128,-1.0775 0.18847,-0.1373 0.37042,-0.2748 0.54719,-0.4288 4.1670697,1.9902 8.9839697,1.9902 13.1522697,0 0.1768,0.1485 0.3588,0.2915 0.5408,0.4288 -0.7071,0.4234 -1.4532,0.7862 -2.2201,1.0775 0.4082,0.8083 0.8748,1.5779 1.4051,2.3035 2.3656,-0.7256 4.5908,-1.8581 6.5807,-3.3479 h 0.0065 c 0.5407,-5.6735 -0.9228,-10.59932 -3.8681,-14.96989 z M 9.6804003,17.6383 c -1.28287,0 -2.33956,-1.193 -2.33956,-2.6443 0,-1.45128 1.0307,-2.64427 2.33956,-2.64427 1.3088897,0 2.3590897,1.19299 2.3382897,2.64427 0,1.4513 -1.0359,2.6443 -2.3382897,2.6443 z m 8.6356897,0 c -1.2829,0 -2.3396,-1.193 -2.3396,-2.6443 0,-1.45128 1.0359,-2.64427 2.3396,-2.64427 1.3023,0 2.359,1.19299 2.3382,2.64427 0,1.4513 -1.0359,2.6443 -2.3382,2.6443 z"/>
</svg>
