<svg
   fill="none"
   height="24"
   width="24"
   version="1.1"
   xmlns="http://www.w3.org/2000/svg"
   xmlns:svg="http://www.w3.org/2000/svg">
   <style>
      path {
         stroke: #000;
         stroke-width:3;
         stroke-linecap:round;
      }
      @media(prefers-color-scheme: dark) {
         path {
               stroke: #fff;
         }
      }
   </style>
   <path d="M17.935 19.5C13.535 23.9.1 10.465 4.5 6.065l1.232-1.232a2 2 0 0 1 3.14.405l.534.914a2 2 0 0 1-.07 2.131l-.363.535a1.5 1.5 0 0 0 .182 1.902l2.062 2.063 2.063 2.062a1.5 1.5 0 0 0 1.902.181l.535-.362a2 2 0 0 1 2.131-.07l.914.534a2 2 0 0 1 .404 3.14z"/>
</svg>
