<?xml version="1.0" encoding="utf-8"?>
<!-- Generator: Adobe Illustrator 23.0.1, SVG Export Plug-In . SVG Version: 6.00 Build 0)  -->
<!DOCTYPE svg PUBLIC "-//W3C//DTD SVG 1.1//EN" "http://www.w3.org/Graphics/SVG/1.1/DTD/svg11.dtd" [
	<!ENTITY ns_extend "http://ns.adobe.com/Extensibility/1.0/">
	<!ENTITY ns_ai "http://ns.adobe.com/AdobeIllustrator/10.0/">
	<!ENTITY ns_graphs "http://ns.adobe.com/Graphs/1.0/">
	<!ENTITY ns_vars "http://ns.adobe.com/Variables/1.0/">
	<!ENTITY ns_imrep "http://ns.adobe.com/ImageReplacement/1.0/">
	<!ENTITY ns_sfw "http://ns.adobe.com/SaveForWeb/1.0/">
	<!ENTITY ns_custom "http://ns.adobe.com/GenericCustomNamespace/1.0/">
	<!ENTITY ns_adobe_xpath "http://ns.adobe.com/XPath/1.0/">
]>
<svg version="1.1" id="Content" xmlns:x="&ns_extend;" xmlns:i="&ns_ai;" xmlns:graph="&ns_graphs;"
	 xmlns="http://www.w3.org/2000/svg" xmlns:xlink="http://www.w3.org/1999/xlink" x="0px" y="0px" viewBox="0 0 575 500"
	 enable-background="new 0 0 575 500" xml:space="preserve">
<metadata>
	<sfw  xmlns="&ns_sfw;">
		<slices></slices>
		<sliceSourceBounds  bottomLeftOrigin="true" height="500" width="575" x="2962.4" y="2576"></sliceSourceBounds>
	</sfw>
</metadata>
<g>
	<g>
		<g>
			<defs>
				<path id="SVGID_1_" d="M381.3,0H193.7L0,337.5L91.6,500h391.9L575,337.5L381.3,0z M185.7,337.5l101.8-175.6l101.8,175.6H185.7z"
					/>
			</defs>
			<clipPath id="SVGID_2_">
				<use xlink:href="#SVGID_1_"  overflow="visible"/>
			</clipPath>
			<g clip-path="url(#SVGID_2_)">
				<polygon fill="#4285F4" points="91.6,337.5 91.6,500 483.4,500 575,337.5 				"/>
				
					<linearGradient id="SVGID_3_" gradientUnits="userSpaceOnUse" x1="-3495.6267" y1="-11420.4922" x2="-2360.1416" y2="-10804.4307" gradientTransform="matrix(0.125 0 0 0.125 576.1874 1846.6335)">
					<stop  offset="0" style="stop-color:#1A237E;stop-opacity:0.2"/>
					<stop  offset="1" style="stop-color:#1A237E;stop-opacity:2.000000e-02"/>
				</linearGradient>
				<polygon fill="url(#SVGID_3_)" points="185.7,337.5 279.9,500 91.6,500 				"/>
				<g>
					<polygon fill="#FFFFFF" fill-opacity="0.2" points="183.9,340.6 569.7,340.6 569.7,340.6 575,337.5 185.7,337.5 185.7,337.5 
											"/>
					<polygon fill="#1A237E" fill-opacity="0.2" points="569.7,340.6 481.6,496.9 93.4,496.9 91.6,500 483.4,500 575,337.5 					"/>
					<polygon fill="#1A237E" fill-opacity="5.000000e-02" points="187.5,340.6 185.7,337.5 91.6,500 95.2,500 					"/>
				</g>
			</g>
		</g>
		<g>
			<defs>
				<path id="SVGID_4_" d="M381.3,0H193.7L0,337.5L91.6,500h391.9L575,337.5L381.3,0z M185.7,337.5l101.8-175.6l101.8,175.6H185.7z"
					/>
			</defs>
			<clipPath id="SVGID_5_">
				<use xlink:href="#SVGID_4_"  overflow="visible"/>
			</clipPath>
			<g clip-path="url(#SVGID_5_)">
				<polygon fill="#0F9D58" points="193.7,0 0,337.5 91.6,500 312.5,118.8 				"/>
				<g>
					<polygon fill="#263238" fill-opacity="0.1" points="193.7,0 195.4,9.2 283.9,161.9 91.6,493.7 3.6,337.5 0,337.5 91.6,500 
						287.5,161.9 					"/>
					<polygon fill="#FFFFFF" fill-opacity="0.2" points="3.6,337.5 195.5,3.1 193.7,0 193.7,0 0,337.5 					"/>
				</g>
			</g>
		</g>
		<g>
			<defs>
				<path id="SVGID_6_" d="M381.3,0H193.7L0,337.5L91.6,500h391.9L575,337.5L381.3,0z M185.7,337.5l101.8-175.6l101.8,175.6H185.7z"
					/>
			</defs>
			<clipPath id="SVGID_7_">
				<use xlink:href="#SVGID_6_"  overflow="visible"/>
			</clipPath>
			<g clip-path="url(#SVGID_7_)">
				<polygon fill="#FFCD40" points="381.3,0 193.7,0 389.3,337.5 575,337.5 				"/>
				<g>
					<polygon fill="#FFFFFF" fill-opacity="0.2" points="381.3,0 193.7,0 199.1,3.1 379.5,3.1 571.4,337.5 575,337.5 					"/>
					<polygon fill="#BF360C" fill-opacity="0.1" points="391.1,334.4 199.1,3.1 199.1,3.1 193.7,0 389.3,337.5 					"/>
				</g>
			</g>
		</g>
	</g>
	
		<radialGradient id="SVGID_8_" cx="-3050.2996" cy="-14732.6533" r="4581.3496" gradientTransform="matrix(0.125 0 0 0.125 576.1874 1846.6335)" gradientUnits="userSpaceOnUse">
		<stop  offset="0" style="stop-color:#FFFFFF;stop-opacity:0.1"/>
		<stop  offset="1" style="stop-color:#FFFFFF;stop-opacity:0"/>
	</radialGradient>
	<path fill="url(#SVGID_8_)" d="M381.3,0H193.7L0,337.5L91.6,500h391.9L575,337.5L381.3,0z M185.7,337.5l101.8-175.6l101.8,175.6
		H185.7z"/>
</g>
</svg>
